<svg width="58" height="52" viewBox="0 0 58 52" fill="none" xmlns="http://www.w3.org/2000/svg">
<path d="M30.6689 47.0795C30.1552 46.6138 29.6155 46.1464 29.1018 45.6307C28.691 46.0183 28.3062 46.3806 27.8954 46.7428C22.8093 51.2132 17.57 53.0752 14.4618 51.265C11.4557 49.5328 10.5052 44.4125 11.7134 37.9741C11.8416 37.2757 11.9959 36.5775 12.176 35.8797C11.6364 35.7244 11.1227 35.5692 10.609 35.3885C4.21263 33.1677 0 29.5447 0 25.9242C0 22.4344 3.93234 19.0464 10.0685 16.8748C10.7621 16.6423 11.4816 16.4091 12.2262 16.2021C12.0464 15.5294 11.9175 14.8838 11.7895 14.2629C10.5052 7.71925 11.4046 2.49723 14.4359 0.739591C17.5951 -1.12239 22.8352 0.86853 28.1003 5.54935C28.4082 5.83352 28.717 6.14315 29.0508 6.45362C29.5394 5.98876 30.0013 5.52051 30.4899 5.10994C35.4747 0.739592 40.4303 -1.09694 43.4599 0.66155C46.6192 2.47093 47.5445 8.05857 46.1314 14.9602C46.0544 15.4004 45.9515 15.8136 45.8494 16.2538C46.4911 16.4354 47.1329 16.6415 47.7244 16.8476C53.9919 19.0201 58.0506 22.4073 57.9995 25.976C57.9995 29.6236 53.6589 33.2161 47.0057 35.4394C46.6459 35.5429 46.287 35.6718 45.9272 35.7787C46.0812 36.2962 46.1841 36.8128 46.287 37.3302C47.6257 44.0317 46.5957 49.5099 43.4875 51.3201C42.6608 51.7853 41.727 52.0195 40.7817 51.9987C37.9287 51.9996 34.3126 50.2275 30.6689 47.0795ZM35.704 37.5898C34.2219 39.7637 32.6008 41.8369 30.8513 43.7958C31.3391 44.2878 31.8269 44.729 32.3155 45.1404C36.5532 48.8117 40.4579 50.1826 42.281 49.1222C43.1294 48.6311 43.8481 47.39 44.1828 45.5026C44.5539 42.9369 44.4492 40.3235 43.8741 37.7968C43.7971 37.3311 43.6942 36.8637 43.5653 36.3742C40.9725 36.9462 38.3465 37.3511 35.7031 37.5864L35.704 37.5898ZM14.179 38.4177C13.1265 43.9248 13.8962 48.0364 15.7202 49.0968C16.5685 49.5879 17.9792 49.5879 19.7788 48.9415C22.1747 47.9972 24.3778 46.6122 26.2772 44.8562C26.6629 44.5457 27.0219 44.1835 27.4076 43.8221C25.6181 41.861 23.9531 39.7868 22.4227 37.6119C19.7904 37.4042 17.174 37.0248 14.5898 36.476C14.4359 37.147 14.307 37.7925 14.1782 38.4135L14.179 38.4177ZM29.1286 42.0373C30.2589 40.77 31.3876 39.3737 32.5196 37.8222C31.3893 37.874 30.2079 37.8994 29.0265 37.8994C27.8703 37.8994 26.7402 37.8737 25.6364 37.8222C26.7291 39.2851 27.8944 40.6908 29.1278 42.034L29.1286 42.0373ZM23.7338 16.7959C22.7582 18.2176 21.8094 19.7174 20.9083 21.2918C20.0089 22.8433 19.1873 24.4211 18.4418 25.9972C19.2124 27.5487 20.0315 29.1265 20.9334 30.7298C21.8329 32.2813 22.7833 33.8065 23.7589 35.2545C25.454 35.358 27.2269 35.4097 29.0249 35.4097C30.848 35.4097 32.6225 35.358 34.341 35.229C35.2664 33.8065 36.216 32.2813 37.1154 30.7035C38.0149 29.1257 38.8616 27.5232 39.607 25.9717C38.8624 24.4448 38.0174 22.8687 37.1154 21.2918C36.2135 19.7148 35.2656 18.2142 34.3159 16.7959C32.5949 16.6661 30.822 16.588 29.0249 16.588C27.2277 16.588 25.4548 16.6669 23.7338 16.7959ZM15.2575 34.0949C17.0224 34.475 18.8058 34.7601 20.6004 34.9491C19.9838 33.966 19.368 32.9836 18.7765 31.9496C18.2118 30.9418 17.6462 29.9324 17.1325 28.9246C16.4184 30.6135 15.7925 32.3393 15.2575 34.0949ZM39.2699 31.9224C38.6792 32.9565 38.0885 33.9397 37.4978 34.8965C39.3191 34.6805 41.1282 34.369 42.9177 33.9634C42.358 32.214 41.7061 30.4963 40.965 28.8177C40.4284 29.8515 39.8645 30.8867 39.2732 31.9233L39.2699 31.9224ZM10.865 19.2559C5.62576 21.117 2.4665 23.8366 2.4665 25.9522C2.4665 26.9354 3.1852 28.1764 4.62343 29.4166C6.6543 31.0212 8.95045 32.2468 11.4046 33.0362C11.8673 33.1915 12.3551 33.3213 12.8429 33.4765C13.635 30.9261 14.5877 28.4298 15.6951 26.0031C14.5855 23.6162 13.6411 21.1539 12.8688 18.6341C12.1755 18.8134 11.5075 19.0206 10.865 19.2559ZM42.3814 25.9522C43.5204 28.3478 44.4987 30.8185 45.3098 33.3476C45.6444 33.2449 45.9791 33.1406 46.2862 33.0371C52.014 31.1234 55.559 28.2019 55.5849 25.9259C55.5849 23.8052 52.2968 21.0653 46.9279 19.2033C46.3891 19.0226 45.7984 18.8411 45.2077 18.6604C44.4251 21.1506 43.4809 23.5857 42.3814 25.9497V25.9522ZM39.2481 20.0024C39.8388 21.0364 40.4035 22.0459 40.9214 23.0562C41.6334 21.4131 42.2508 19.7296 42.7705 18.014C41.0234 17.6128 39.2575 17.3014 37.4794 17.0809C38.0918 18.0378 38.6825 18.9946 39.2481 20.0024ZM15.2826 17.9835C15.7963 19.6376 16.4129 21.3189 17.1325 23.0511C17.6462 22.0433 18.2118 21.0339 18.7765 20.0261C19.3413 19.0184 19.9319 18.0352 20.5486 17.0784C18.6995 17.3142 16.9534 17.6246 15.2826 17.9835ZM32.108 6.99652C31.6712 7.38418 31.2345 7.79815 30.7978 8.21211C32.5732 10.1446 34.2126 12.2011 35.704 14.3664C38.3138 14.6039 40.9049 15.0188 43.4599 15.6083C43.5628 15.2206 43.6398 14.8321 43.7168 14.4444C44.9232 8.49798 44.1794 3.9461 42.2267 2.8094C41.793 2.58202 41.309 2.47105 40.821 2.48705C38.7227 2.4862 35.5032 4.02838 32.108 6.99652ZM15.6683 2.88405C13.8443 3.94355 13.1257 8.18496 14.2041 13.7701C14.3321 14.3638 14.4618 14.9576 14.6149 15.5794C17.1735 15.0121 19.7643 14.6064 22.3725 14.3647C23.8692 12.1965 25.5172 10.1398 27.3038 8.21041C27.021 7.92539 26.7131 7.66751 26.4304 7.40794C22.8519 4.215 19.4191 2.52947 17.1743 2.52947C16.6504 2.5122 16.1311 2.63446 15.6683 2.88405ZM32.4669 14.1577C31.4055 12.7068 30.265 11.3172 29.0508 9.9952C27.8954 11.2617 26.7391 12.6588 25.6087 14.1577C26.7391 14.106 27.8678 14.0805 29.0249 14.0805C30.182 14.0805 31.3366 14.1077 32.4669 14.1586V14.1577ZM23.8852 26.054C23.8781 25.0123 24.1762 23.9919 24.7419 23.1222C25.3075 22.2525 26.1152 21.5728 27.0624 21.1691C28.0096 20.7654 29.0537 20.6561 30.0623 20.8548C31.0709 21.0536 31.9986 21.5516 32.7276 22.2857C33.4567 23.0198 33.9543 23.9568 34.1574 24.978C34.3605 25.9992 34.2599 27.0585 33.8684 28.0217C33.4768 28.9848 32.812 29.8084 31.9582 30.3879C31.1044 30.9675 30.1 31.2769 29.0726 31.2769C28.3932 31.281 27.7198 31.149 27.0909 30.8885C26.4621 30.6279 25.8902 30.2439 25.4082 29.7586C24.9262 29.2733 24.5435 28.6961 24.2821 28.0604C24.0207 27.4246 23.8859 26.7428 23.8852 26.054Z" fill="#81D8F7"/>
</svg>
